# xmcd
#
# Track frame offsets: 
#        150
#        13348
#        26685
#        39148
#        53783
#        67565
#        81060
#        96200
#        109075
#        122060
#        134955
#        147505
#        160528
#
# Disc length: 2297 seconds
#
# Revision: 2
# Processed by: cddbd v1.5.2PL0 Copyright (c) Steve Scherf et al.
# Submitted via: ExactAudioCopy v0.99pb4
#
DISCID=a908f70d
DTITLE=Mississippi John Hurt - Mississippi John Hurt - 1928 Sessions -
DYEAR=2002
DGENRE=
TTITLE0=Ain't No Tellin'
TTITLE1=Stack O' Lee Blues
TTITLE2=Candy Man Blues
TTITLE3=Spike Driver Blues
TTITLE4=Avalon Blues
TTITLE5=Louis Collins
TTITLE6=Frankie
TTITLE7=Big Leg Blues
TTITLE8=Nobody's Dirty Business
TTITLE9=Got The Blues, Can't Be Satisfied
TTITLE10=Blessed Be The Name
TTITLE11=Blue Harvest Blues
TTITLE12=Praying On The Old Camp Ground
EXTD=
EXTT0=
EXTT1=
EXTT2=
EXTT3=
EXTT4=
EXTT5=
EXTT6=
EXTT7=
EXTT8=
EXTT9=
EXTT10=
EXTT11=
EXTT12=
PLAYORDER=
